<?xml version="1.0" standalone="no"?>
<!DOCTYPE svg PUBLIC "-//W3C//DTD SVG 1.1//EN" "http://www.w3.org/Graphics/SVG/1.1/DTD/svg11.dtd" >
<svg xmlns="http://www.w3.org/2000/svg">
<metadata></metadata>
<defs>
<font id="advent_probold" horiz-adv-x="1003" >
<font-face units-per-em="2048" ascent="1638" descent="-410" />
<missing-glyph horiz-adv-x="569" />
<glyph horiz-adv-x="2048" />
<glyph horiz-adv-x="2048" />
<glyph unicode="&#xd;" horiz-adv-x="681" />
<glyph unicode=" "  horiz-adv-x="569" />
<glyph unicode="&#x09;" horiz-adv-x="569" />
<glyph unicode="&#xa0;" horiz-adv-x="569" />
<glyph unicode="!" horiz-adv-x="561" d="M160 1313q0 141 114 141q123 0 123 -139l-43 -1069h-155zM176 102q0 43 31 74t72 31q43 0 73.5 -31t30.5 -74q0 -41 -30.5 -71.5t-73.5 -30.5q-41 0 -72 30.5t-31 71.5z" />
<glyph unicode="&#x22;" horiz-adv-x="872" d="M215 1423q0 51 47 76q23 12 47 12l43 -12q47 -20 47 -76l-28 -374h-127zM508 1423q0 51 45 76q25 12 49 12l45 -12q45 -20 45 -76l-28 -374h-127z" />
<glyph unicode="#" horiz-adv-x="1255" d="M70 344v209h182l43 178h-225v230h280l109 473h215l-111 -473h244l111 473h233l-111 -473h152v-230h-209l-41 -178h250v-209h-299l-82 -344h-229l75 344h-241l-78 -344h-217l82 344h-133zM467 553h242l43 178h-244z" />
<glyph unicode="$" horiz-adv-x="1105" d="M70 365l241 34q12 -133 129 -180v500q-78 33 -126 59.5t-102 70.5t-81 106.5t-27 144.5q0 119 86 216t250 128v229h226v-223q98 -10 200 -57l-12 -37q-12 -37 -30.5 -92.5t-28.5 -83.5q-80 25 -129 34v-348q80 -37 137 -73.5t116.5 -93t91 -132t31.5 -170.5 q0 -160 -93 -272.5t-283 -138.5v-219h-226v221q-172 29 -269 138.5t-101 238.5zM348 1079q6 -57 92 -106v233q-92 -35 -92 -110v-17zM666 215q66 25 97.5 71t31.5 91q0 143 -129 231v-393z" />
<glyph unicode="%" horiz-adv-x="1402" d="M70 141l1087 1385l182 -135l-1099 -1393zM92 1194q0 123 86 209t209 86t209 -86t86 -209t-86 -209t-209 -86t-209 86t-86 209zM315 1194q0 -29 20.5 -50.5t51.5 -21.5t51.5 21.5t20.5 50.5q0 27 -20.5 49.5t-51.5 22.5t-51.5 -22.5t-20.5 -49.5zM729 272.5 q0 122.5 86 208.5t209 86t209 -86t86 -208.5t-86 -209t-209 -86.5t-209 86.5t-86 209zM954 272.5q0 -28.5 18.5 -49t51.5 -20.5t51.5 20.5t18.5 49t-18.5 49t-51.5 20.5t-51.5 -20.5t-18.5 -49z" />
<glyph unicode="&#x26;" horiz-adv-x="1146" d="M72 367q0 25 2 51q10 100 55 184t104.5 132t104.5 75t78 37q-70 31 -112 108.5t-42 171.5q0 184 166 279q98 53 203 53q72 0 149 -26l-129 -199q-14 10 -33 10q-23 0 -53 -14q-53 -23 -65 -80q-6 -23 -6 -43q0 -59 43 -94q57 -47 96 -47h4l22 2v252l226 28v-256l149 33 l49 -227l-198 -39v-383q0 -174 135 -219l-33 -179h-10q-57 0 -129 23q-76 25 -131 86q-31 -37 -102.5 -73t-178.5 -36q-184 0 -280 129q-84 113 -84 261zM289 381q0 -61 33 -109q45 -66 137 -65q98 0 149 77t51 173v250q-332 -82 -366 -279q-4 -25 -4 -47z" />
<glyph unicode="'" horiz-adv-x="356" d="M94 1423q0 51 45 76q25 12 49 12l45 -12q45 -20 46 -76l-29 -217h-127z" />
<glyph unicode="(" horiz-adv-x="681" d="M160 145v1139q0 154 59.5 236t183.5 153l113 -178q-70 -20 -101.5 -77.5t-31.5 -174.5v-1053q0 -39 3 -71.5t7 -55t14.5 -42t15.5 -28.5t20.5 -21.5t21.5 -16.5t26.5 -13.5t26.5 -13.5l-112 -166q-129 74 -187.5 152t-58.5 231z" />
<glyph unicode=")" horiz-adv-x="681" d="M160 -72q6 4 26.5 13.5t26.5 13.5t21.5 16.5t20.5 21.5t15.5 28.5t14.5 42t7 55.5t3 71v1053q0 117 -32 174.5t-101 77.5l112 178q125 -72 184.5 -153.5t59.5 -235.5v-1139q0 -154 -58.5 -231.5t-187.5 -151.5z" />
<glyph unicode="*" horiz-adv-x="720" d="M27 1128l79 211l197 -137l-67 232h245l-69 -232l192 141l92 -217l-247 -20l194 -154l-209 -141l-76 244l-79 -244l-201 145l188 152z" />
<glyph unicode="+" horiz-adv-x="788" d="M70 631v215h213v270h229v-270h213v-215h-213v-232h-229v232h-213z" />
<glyph unicode="," horiz-adv-x="364" d="M2 -113q43 25 80 51.5t53 41.5l15 14l-25 6q-61 29 -62 98q0 47 33 78q31 31 76 31h6q53 -2 78 -43t25 -86q0 -70 -32 -125t-106 -125z" />
<glyph unicode="-" horiz-adv-x="839" d="M92 631v215h656v-215h-656z" />
<glyph unicode="." horiz-adv-x="292" d="M2 102q0 43 30.5 74t71.5 31q43 0 74 -31t31 -74q0 -41 -31 -71.5t-74 -30.5q-41 0 -71.5 30.5t-30.5 71.5z" />
<glyph unicode="/" horiz-adv-x="960" d="M27 -233l663 1906h246l-670 -1906h-239z" />
<glyph unicode="0" horiz-adv-x="1124" d="M129 379v659q0 211 115.5 319.5t318.5 108.5t314.5 -114.5t111.5 -315.5v-657q0 -207 -126 -304.5t-302 -97.5t-304 97.5t-128 304.5zM354 418q0 -98 50.5 -154.5t154.5 -56.5q96 0 150.5 59.5t54.5 155.5v541q0 131 -40 195.5t-165 64.5t-165 -62.5t-40 -195.5v-547z " />
<glyph unicode="1" horiz-adv-x="509" d="M27 1286q14 2 39.5 8t87 44t106.5 96h225v-1434h-227l2 1120q-23 -10 -64.5 -17t-72.5 -9l-31 -4z" />
<glyph unicode="2" horiz-adv-x="819" d="M27 0v207l471 690q68 111 67 188q0 31 -8 56q-37 92 -151 92q-55 0 -98.5 -40t-47.5 -91l-199 106q37 104 135.5 175t227.5 71q115 0 203 -55.5t129 -141.5q31 -68 30 -151q0 -25 -2 -53q-12 -115 -88 -230l-407 -616h506v-207h-768z" />
<glyph unicode="3" horiz-adv-x="849" d="M27 170l139 160q29 -59 90 -97t129 -38q102 0 158.5 63.5t56.5 153.5q0 205 -297 219h-225l385 577h-348v226h590v-226l-240 -362l10 -2q139 -29 244.5 -145.5t105.5 -286.5q0 -182 -128 -309.5t-308 -127.5q-111 0 -207 52.5t-155 142.5z" />
<glyph unicode="4" horiz-adv-x="1060" d="M27 631l395 803h229l-260 -588h281v588h223v-588h141l-39 -215h-102v-631h-223v631h-645z" />
<glyph unicode="5" horiz-adv-x="849" d="M27 170l139 162q51 -70 99 -101.5t124 -31.5q111 0 161 61.5t50 151.5q0 102 -80 160.5t-215 58.5h-227l88 803h545v-228h-334l-39 -360h51q182 0 309 -127t127 -307q0 -182 -128 -309.5t-308 -127.5q-111 0 -207 52.5t-155 142.5z" />
<glyph unicode="6" horiz-adv-x="921" d="M27 412v532q0 82 24.5 161t78.5 155.5t156.5 125t239.5 48.5h72v-226h-53q-61 0 -105.5 -10t-90.5 -39t-70.5 -94.5t-24.5 -163.5v-108q35 20 98.5 36.5t108.5 16.5q182 0 309 -127t127 -307q0 -182 -127 -309.5t-309 -127.5q-180 0 -307 127.5t-127 309.5zM250 412 q0 -88 61.5 -150.5t149.5 -62.5t149.5 62.5t61.5 150.5t-61.5 148.5t-149.5 60.5q-86 0 -148.5 -58.5t-62.5 -142.5v-8z" />
<glyph unicode="7" horiz-adv-x="897" d="M27 0l594 1208h-555v226h806v-226l-598 -1208h-247z" />
<glyph unicode="8" horiz-adv-x="923" d="M27 412q0 125 63.5 227t169.5 158q-154 104 -154 295q0 150 104.5 255t254 105t255 -105.5t105.5 -254.5q1 -193 -157 -297q104 -57 167.5 -158.5t63.5 -224.5q0 -182 -128 -309.5t-308 -127.5t-308 127t-128 310zM252 412q0 -88 60.5 -149.5t150.5 -61.5t150.5 61.5 t60.5 149.5q0 90 -59.5 152.5t-155.5 62.5q-86 0 -146.5 -63.5t-60.5 -151.5zM326 1092q0 -53 39 -93.5t94 -40.5q59 0 100 39t41 95q0 57 -40 98t-95 41q-57 0 -98 -41t-41 -98z" />
<glyph unicode="9" horiz-adv-x="921" d="M27 1018q0 182 128 309t308 127t307 -127t127 -309v-529q0 -82 -24.5 -160.5t-79 -155.5t-157 -125t-239.5 -48h-71v207h80q131 0 199.5 91t68.5 241v108q-2 0 -18.5 -11t-21.5 -14.5t-21.5 -11.5t-28 -11t-30.5 -7t-42 -6t-49 -2q-182 0 -309 127t-127 307zM252 1018 q0 -86 62.5 -147.5t148.5 -61.5t148.5 62.5t62.5 154.5q0 82 -63.5 143.5t-147.5 61.5q-86 0 -148.5 -63.5t-62.5 -149.5z" />
<glyph unicode=":" horiz-adv-x="278" d="M27 338q0 47 32.5 81t79.5 34t81 -34t34 -81t-34 -80t-81 -33q-45 0 -78.5 33t-33.5 80zM31 745.5q0 45.5 32.5 78t77.5 32.5t78 -32.5t33 -78t-33 -78t-78 -32.5t-77.5 32.5t-32.5 78z" />
<glyph unicode=";" horiz-adv-x="329" d="M27 -113q43 25 79.5 51.5t53.5 41.5l14 14l-24 6q-61 29 -62 98q0 47 33 78q31 31 76 31h6q53 -2 77.5 -43t24.5 -86q0 -70 -31.5 -125t-105.5 -125zM90 522q0 45 31 76t76 31t75.5 -31t30.5 -76t-30.5 -75.5t-75.5 -30.5t-76 30.5t-31 75.5z" />
<glyph unicode="&#x3c;" horiz-adv-x="772" d="M27 733v2l569 570l152 -144l-433 -428l428 -434l-147 -135z" />
<glyph unicode="=" horiz-adv-x="706" d="M27 418v215h655v-215h-655zM27 731v215h655v-215h-655z" />
<glyph unicode="&#x3e;" horiz-adv-x="772" d="M27 1161l151 144l570 -570v-2l-570 -569l-147 135l428 434z" />
<glyph unicode="?" horiz-adv-x="808" d="M27 1090q0 154 95 258t269 104q106 0 197.5 -55.5t142.5 -139.5q51 -82 51 -188q0 -111 -69 -211q-37 -53 -90.5 -110.5t-78 -88t-44 -102.5t-21.5 -184v-129h-223v190q0 94 29.5 177t64.5 130t87 112t75 99q43 70 43 125q0 10 -2 21q-10 63 -51 101t-88 38 q-80 0 -119 -41t-39 -106h-229zM262 102q0 43 31 74t72 31q43 0 73.5 -31t30.5 -74q0 -41 -30.5 -71.5t-73.5 -30.5q-41 0 -72 30.5t-31 71.5z" />
<glyph unicode="@" horiz-adv-x="1574" d="M27 375v325q0 223 130 353.5t312 165.5q74 16 145 16q43 0 86 -6q115 -14 209.5 -56.5t152.5 -135.5t58 -220l76 -31v-215l-76 31v-416q-96 -31 -178 -49t-174 -28q-41 -4 -80 -5q-45 0 -84 7q-72 12 -133 43.5t-97 98t-42 165.5v207q0 227 180 295q53 25 123 24 q12 0 24 -2q84 -4 137.5 -16.5t98.5 -28.5q-10 68 -72.5 101.5t-130.5 35.5h-24q-184 0 -306 -84q-129 -92 -129 -274v-287q0 -109 44.5 -186.5t118 -116.5t152.5 -56.5t167 -17.5q92 0 181 17.5t171 52.5t132 100.5t50 149.5l-2 350q0 57 2 88t13.5 82t35 81t69.5 59.5 t114 41.5l69 -184q-41 -14 -61.5 -44t-23.5 -52.5t-3 -65.5v-323q0 -131 -52 -231.5t-131 -160t-184.5 -97.5t-200.5 -51t-192 -13q-293 0 -484 149.5t-191 413.5zM541 494q0 -35 3 -60.5t22.5 -61.5t54.5 -53q29 -14 84 -14q10 0 20 2q72 2 170 35v336q-53 27 -113 43 q-53 12 -102 12h-12q-55 -2 -91 -33.5t-36 -93.5v-112z" />
<glyph unicode="A" horiz-adv-x="1079" d="M43 0l336 1434h317l363 -1434h-268l-84 375h-330l-80 -375h-254zM430 614h223l-116 443z" />
<glyph unicode="B" horiz-adv-x="1126" d="M160 0v1434h418q170 0 282.5 -94.5t112.5 -268.5q0 -193 -135 -285q-2 -2 -2 -4v-2q90 -41 150.5 -131t60.5 -229q0 -78 -23 -148.5t-72 -133t-137 -100.5t-207 -38h-448zM385 207h125q141 0 209.5 42t68.5 175q0 205 -260 205h-143v-422zM385 846h98q117 0 172.5 43 t55.5 147q0 96 -51.5 134t-155.5 38h-119v-362z" />
<glyph unicode="C" horiz-adv-x="880" d="M135 375v657q0 156 44 236t134 135q92 51 219 51h27q143 -6 264 -68l-63 -204q-94 35 -207 35q-86 0 -139.5 -47.5t-53.5 -118.5v-672q0 -37 8.5 -66.5t27 -48t37 -33t51 -18.5t55 -7t62.5 3t62.5 9t64.5 13.5t58.5 14.5t53.5 14l34 -213q-100 -39 -200 -55 q-66 -12 -131 -12q-33 0 -68 4q-98 8 -173 48t-121 127t-46 216z" />
<glyph unicode="D" horiz-adv-x="1179" d="M160 0v1436h385q231 0 353 -127t122 -338v-561q0 -410 -434 -410h-426zM385 207h168q51 0 86 5t75 21.5t60.5 55.5t20.5 100v602q0 113 -56.5 165t-173.5 52h-180v-1001z" />
<glyph unicode="E" horiz-adv-x="952" d="M160 0v1434h684v-226h-459v-362h281l-64 -215h-217v-426h455v-205h-680z" />
<glyph unicode="F" horiz-adv-x="923" d="M160 0v1434h684v-226h-459v-362h287l-74 -215h-213v-631h-225z" />
<glyph unicode="G" horiz-adv-x="1099" d="M133 387v643q0 262 178 371q92 51 219 51h27q143 -6 264 -68l-67 -202q-98 37 -187 37q-98 0 -153.5 -36t-55.5 -134v-666q0 -98 52.5 -137t152.5 -39q186 0 187 174v18h-117l-72 215h414v-614h-213l-12 16q-103 -36 -181 -36h-4q-180 0 -306 102t-126 305z" />
<glyph unicode="H" horiz-adv-x="1204" d="M160 0v1434h225v-588h432v588h223v-1434h-223v631h-432v-631h-225z" />
<glyph unicode="I" horiz-adv-x="641" d="M125 1217v217h352v-1434h-225v1212z" />
<glyph unicode="J" horiz-adv-x="479" d="M-31 117q215 0 215 202v893l-123 5v217h345v-1149q0 -195 -78 -277t-285 -84z" />
<glyph unicode="K" horiz-adv-x="1089" d="M162 0v1436h241v-494l332 494h271l-455 -666l534 -770h-280l-387 569l-15 -20v-549h-241z" />
<glyph unicode="L" horiz-adv-x="901" d="M160 0v1434h225v-1227h514v-207h-739z" />
<glyph unicode="M" horiz-adv-x="1421" d="M160 0v1434h225l322 -949l325 949h225v-1434h-225v758l-239 -758h-172l-236 756v-756h-225z" />
<glyph unicode="N" horiz-adv-x="1331" d="M160 0v1434h225l555 -963v963h227v-1434h-227l-555 969v-969h-225z" />
<glyph unicode="O" horiz-adv-x="1124" d="M129 379v659q0 211 115.5 319.5t318.5 108.5t314.5 -114.5t111.5 -315.5v-657q0 -207 -126 -304.5t-302 -97.5t-304 97.5t-128 304.5zM354 418q0 -98 50.5 -154.5t154.5 -56.5q96 0 150.5 59.5t54.5 155.5v541q0 131 -40 195.5t-165 64.5t-165 -62.5t-40 -195.5v-547z " />
<glyph unicode="P" horiz-adv-x="1128" d="M160 0v1434h467q215 0 318.5 -138.5t103.5 -347.5q0 -549 -404 -549h-260v-399h-225zM385 614h193q70 0 120 22.5t73.5 50.5t36.5 79t14 81t1 83v14q0 158 -61.5 211t-192.5 53h-184v-594z" />
<glyph unicode="Q" horiz-adv-x="1124" d="M129 379v659q0 211 115.5 319.5t318.5 108.5t314.5 -114.5t111.5 -315.5v-657q0 -172 -85 -264t-191 -113q27 -31 60.5 -39t109.5 -8l-29 -193h-20q-268 0 -351 222q-61 6 -117.5 28.5t-112.5 64.5t-90 119.5t-34 182.5zM354 381q0 -174 92 -174q-2 12 -2 112v37h226v-34 v-113q94 0 94 174v651q0 31 -7 58.5t-26.5 61.5t-63.5 53.5t-108 19.5q-123 0 -164 -52.5t-41 -140.5v-653z" />
<glyph unicode="R" horiz-adv-x="1155" d="M160 0v1434h485q199 0 301.5 -140.5t102.5 -347.5q0 -100 -5.5 -159.5t-42 -153.5t-110.5 -158l160 -475h-230l-137 399h-299v-399h-225zM385 614h207q63 0 107 25t64.5 54.5t33 83.5t13.5 85t1 84q0 158 -63.5 209t-196.5 51h-166v-592z" />
<glyph unicode="S" horiz-adv-x="1148" d="M76 365l241 34q10 -90 74 -145t166 -55q125 0 184.5 56t59.5 122q0 82 -38 141.5t-99.5 97t-134 68.5t-146.5 64.5t-135.5 75.5t-99 112t-37.5 164q0 143 119.5 248.5t342.5 105.5q170 0 299 -61l-12 -37q-12 -37 -30.5 -92.5t-28.5 -83.5q-139 45 -226 45 q-117 0 -172 -41q-49 -37 -49 -92v-13q6 -53 80 -98t175.5 -88t200.5 -99.5t169 -157.5t70 -239q0 -182 -121 -301t-369 -119q-223 0 -351 118t-132 270z" />
<glyph unicode="T" horiz-adv-x="823" d="M0 1206v228h823v-228h-303v-1206h-225v1206h-295z" />
<glyph unicode="U" horiz-adv-x="1159" d="M152 381v1055h225v-965q0 -139 42 -201.5t163 -62.5q123 0 164.5 62.5t41.5 201.5v965h226v-1055q0 -109 -38 -188.5t-102.5 -122.5t-136 -63.5t-153.5 -20.5t-155 20.5t-137.5 63.5t-102 122.5t-37.5 188.5z" />
<glyph unicode="V" horiz-adv-x="1218" d="M160 1434h254l235 -992l230 992h260l-357 -1434h-264z" />
<glyph unicode="W" horiz-adv-x="1665" d="M160 1434h248l167 -918l220 918h159l220 -918l153 918h258l-274 -1434h-254l-183 723l-178 -723h-262z" />
<glyph unicode="X" horiz-adv-x="1421" d="M160 0l446 717l-422 717h267l301 -476l286 476h269l-420 -699l454 -735h-288l-312 500l-301 -500h-280z" />
<glyph unicode="Y" horiz-adv-x="1122" d="M98 846v588h226v-568q0 -245 241 -245h2q25 0 46.5 2t39 6t31.5 8t27.5 11t21.5 11.5t17.5 12.5t13.5 12t10 12l8 6v732h226v-1115q0 -162 -70 -252t-238 -106l-71 172q68 8 110.5 51t42.5 152v115q-102 -51 -215 -52q-211 0 -340 121t-129 326z" />
<glyph unicode="Z" horiz-adv-x="1126" d="M63 0v207l701 1001h-674v226h959v-226l-705 -995h717v-213h-998z" />
<glyph unicode="[" horiz-adv-x="653" d="M160 -233v1906h329v-215l-104 -20v-1436l104 -20v-215h-329z" />
<glyph unicode="\" horiz-adv-x="1148" d="M160 1673h246l663 -1906h-240z" />
<glyph unicode="]" horiz-adv-x="653" d="M160 -18l104 20v1436l-104 20v215h329v-1906h-329v215z" />
<glyph unicode="^" horiz-adv-x="833" d="M160 1552l303 289l291 -289l-138 -79l-155 169l-166 -169z" />
<glyph unicode="_" horiz-adv-x="704" d="M137 0h656v-154h-656v154z" />
<glyph unicode="`" horiz-adv-x="454" d="M94 1417q0 6 2 13q8 41 49 61q12 8 31 8q16 0 39 -8q47 -14 68 -61l94 -222h-150l-100 129q-33 43 -33 80z" />
<glyph unicode="a" horiz-adv-x="937" d="M76 317v29v170q0 203 141 272q59 33 135 33q12 0 23 -2q90 -4 155.5 -21.5t108.5 -41.5q0 131 -219 131l18 155q78 0 140.5 -9t105.5 -30.5t76 -44t51 -59.5t30.5 -64.5t16.5 -74.5t5 -74t1 -76v-610q-213 -20 -340 -20q-57 0 -96 4q-336 37 -352 333zM303 375 q0 -188 217 -189q53 1 119 13v317q-33 23 -85 42.5t-112 29.5q-16 2 -32 2q-37 0 -66 -17q-41 -25 -41 -86v-112z" />
<glyph unicode="b" horiz-adv-x="995" d="M160 0v1434h225v-410q88 18 164 18q109 0 192 -38q174 -80 174 -295v-387q0 -203 -159 -285q-120 -61 -270 -61q-3 0 -6 -1q-147 0 -320 25zM385 197q35 -12 78 -13q51 0 115 17q114 28 114 116v328q0 78 -41 121t-94 49h-37q-35 0 -65 -4q-49 -10 -70 -29v-585z" />
<glyph unicode="c" horiz-adv-x="784" d="M74 369v262q0 145 57 243.5t152 137.5q76 32 166 32h6q18 0 39 -2q117 -8 235 -63l-61 -195q-106 37 -183 37q-55 0 -92 -18q-94 -45 -94 -160v-297q0 -68 47 -103.5t113 -37.5h26q51 0 97 6q57 8 90 22l61 -221q-131 -35 -244 -35q-100 0 -186 27q-121 41 -175 126 t-54 239z" />
<glyph unicode="d" horiz-adv-x="995" d="M160 322v387q0 215 174 295q61 29 137 36q41 4 76 4q31 0 55 -4q53 -6 90 -20v414h223v-1434q-176 -25 -325.5 -25t-270.5 62q-159 82 -159 285zM383 307q0 -70 94 -104q49 -18 109 -19q49 1 106 15v583q-49 25 -102 31q-16 2 -33 2q-35 0 -68 -8q-47 -14 -76.5 -60.5 t-29.5 -119.5v-320z" />
<glyph unicode="e" horiz-adv-x="888" d="M72 274v420q0 166 103.5 258t273 92t265 -91t95.5 -253v-311l-510 -27v-57q0 -104 94 -119q14 -2 29 -2q92 0 254 82l82 -194q-152 -92 -338 -97h-17q-147 0 -237 70q-94 76 -94 229zM299 569l283 19v108q0 61 -39 94t-97 33q-78 0 -112.5 -41t-34.5 -90v-123z" />
<glyph unicode="f" horiz-adv-x="665" d="M160 0v1124q0 92 27.5 161t72.5 102.5t102 54.5q49 16 99 16h14q57 -4 111 -10l-37 -205q-20 4 -57 10h-11q-31 0 -59 -26q-33 -33 -33 -103v-98h178l-49 -211h-129v-815h-229z" />
<glyph unicode="g" horiz-adv-x="917" d="M76 360v306q0 180 105.5 279t283.5 99q57 0 102 -13t58 -27l43 22h180v-1157q0 -299 -322 -299l-53 176q70 0 110 40t40 120v110q-55 -41 -166 -41q-180 0 -280.5 98.5t-100.5 286.5zM301 391q0 -198 154 -198h2q100 0 133 65t33 215v172q0 176 -166 176q-84 0 -120 -48 t-36 -118v-264z" />
<glyph unicode="h" horiz-adv-x="1009" d="M131 0v1434h225v-416q57 25 152 26h8q92 0 197 -38q174 -80 174 -297v-709h-225v629q0 94 -38 145t-92 57h-34q-35 0 -66 -6q-47 -10 -76 -28v-797h-225z" />
<glyph unicode="i" horiz-adv-x="565" d="M160 1335q0 47 36.5 83t86.5 36q47 0 82.5 -36t35.5 -83q0 -49 -35.5 -86t-82.5 -37q-49 0 -86 37t-37 86zM164 0v1026h225v-1026h-225z" />
<glyph unicode="j" horiz-adv-x="483" d="M-2 1026h375v-1180q-4 -115 -99.5 -194.5t-210.5 -79.5l-61 174q6 0 15.5 2t35 13.5t45 28.5t34.5 53t15 85v889l-104 21zM141 1335q0 49 37 84t86 35t84 -35t35 -84t-35 -86t-84 -37t-86 37t-37 86z" />
<glyph unicode="k" horiz-adv-x="970" d="M131 0v1434h225v-652l306 283l165 -158l-268 -227q299 -494 416 -680h-283l-307 520l-29 -28v-492h-225z" />
<glyph unicode="l" horiz-adv-x="548" d="M160 0v1434h225v-1434h-225z" />
<glyph unicode="m" horiz-adv-x="1517" d="M160 0v1026h198l27 -14q55 25 125 30q14 2 29 2q57 0 118 -20q78 -25 131 -80q29 16 86 45q131 53 244 53h29q127 -8 209 -98t82 -235v-709h-226v623q0 152 -59 192q-27 16 -66 16q-51 0 -126 -28l-35 -15q8 -20 8 -59v-729h-225v616q0 147 -97 195q-37 20 -80 20 q-68 0 -147 -47v-784h-225z" />
<glyph unicode="n" horiz-adv-x="1024" d="M131 0v1026h199l26 -12q91 30 174 30h5q94 0 178 -38q174 -80 174 -297v-709h-225v645q0 119 -89 164q-37 18 -79 18q-63 0 -140 -36v-791h-223z" />
<glyph unicode="o" d="M160 377v270q0 195 99 298.5t286 103.5q178 0 278.5 -108t100.5 -294v-270q0 -172 -94.5 -284.5t-285 -112.5t-287.5 113.5t-97 283.5zM385 356q0 -155 158 -155h2q68 0 111.5 38.5t43.5 116.5v291q0 59 -14 97t-42 53.5t-49.5 19.5t-49.5 4q-160 0 -160 -174v-291z" />
<glyph unicode="p" horiz-adv-x="1011" d="M160 -430v1456h213l12 -14q66 30 152 30h6q190 0 289.5 -110.5t99.5 -286.5v-285q0 -186 -104.5 -285.5t-276.5 -99.5q-49 0 -78 4.5t-56.5 14.5t-31.5 10v-389zM385 385q0 -184 166 -184q94 0 125 49t31 164v239q0 168 -156 168q-84 0 -125 -42t-41 -115v-279z" />
<glyph unicode="q" horiz-adv-x="917" d="M76 360v283q0 176 99 287.5t290 111.5q33 0 60.5 -4t41 -9t32.5 -13t26 -10l14 20h209v-1456l-223 45v391q-4 -2 -21.5 -8t-32 -10t-46 -8.5t-68.5 -4.5q-172 0 -276.5 99.5t-104.5 285.5zM299 367q0 -166 158 -166q102 0 135 51t33 143v246q0 180 -168 180 q-158 0 -158 -200v-254z" />
<glyph unicode="r" horiz-adv-x="778" d="M125 0v1026h209l16 -8q68 23 137 24h41q39 0 58 -2q29 -4 112 -22l-53 -219q-55 28 -106 28h-4q-45 0 -89 -18q-96 -43 -96 -150v-659h-225z" />
<glyph unicode="s" horiz-adv-x="882" d="M74 260l225 23q0 -37 38 -70t116 -33q68 0 104.5 34t36.5 79q0 59 -48 95t-118 57.5t-140.5 49t-124.5 91t-65 162.5q-2 12 -2 24q0 100 80 184q86 94 273 95q66 0 123 -15.5t81 -29.5l25 -15l-66 -209q-47 47 -163 47q-57 0 -85 -16t-25 -35.5t3 -34.5q6 -31 60.5 -56 t124 -50t139 -61.5t117.5 -110.5t48 -176q0 -133 -96 -226.5t-282 -93.5q-174 0 -274.5 84t-104.5 207z" />
<glyph unicode="t" horiz-adv-x="561" d="M90 270v1164h229v-408h195l-49 -211h-146v-545q0 -70 39 -93t111 -23l-68 -181q-311 6 -311 297z" />
<glyph unicode="u" horiz-adv-x="915" d="M74 352v674h225v-641q0 -94 34 -139t126 -45t122.5 50t30.5 142v633h226v-1026h-211l-15 12q-92 -35 -153 -35q-385 0 -385 375z" />
<glyph unicode="v" horiz-adv-x="927" d="M25 1026h245l191 -627l186 627h244l-322 -1026h-217z" />
<glyph unicode="w" horiz-adv-x="1454" d="M25 1026h245l187 -627l166 627h213l172 -627l168 627h241l-332 -1026h-215l-147 547l-150 -547h-219z" />
<glyph unicode="x" horiz-adv-x="1128" d="M125 0l319 510l-319 516h285l176 -293l184 293h279l-326 -514l309 -512h-268l-180 287l-178 -287h-281z" />
<glyph unicode="y" horiz-adv-x="1036" d="M76 360v666h225v-604q0 -129 34 -175t116 -46q90 0 128.5 44t38.5 177v321q0 109 75 200t190 101l84 -184q-59 -14 -91 -56t-32 -93v-836q0 -133 -62.5 -210t-212.5 -95l-88 178q53 0 95 33t42 104v119q-92 -29 -167 -29q-180 0 -277.5 97.5t-97.5 287.5z" />
<glyph unicode="z" horiz-adv-x="991" d="M160 0v213l428 600h-410v213h713v-205l-430 -608h450v-213h-751z" />
<glyph unicode="{" horiz-adv-x="743" d="M160 725q49 39 98 102.5t49 118.5v215q0 258 63.5 378t229.5 144l59 -188q-53 0 -90 -51t-37 -164v-346q0 -88 -118 -207q123 -123 123 -209v-340q0 -117 32 -165t95 -48l-64 -203q-113 31 -171 78t-88 142.5t-30 263.5v260q0 39 -32.5 89t-54 70.5t-64.5 59.5z" />
<glyph unicode="|" horiz-adv-x="548" d="M160 -233v1906h225v-1906h-225z" />
<glyph unicode="}" horiz-adv-x="743" d="M160 -35q63 0 95 48t32 165v340q0 86 123 209q-119 119 -119 207v346q0 113 -37 164t-90 51l59 188q166 -25 229.5 -144.5t63.5 -377.5v-215q0 -55 49 -118.5t99 -102.5q-43 -39 -64.5 -59.5t-54.5 -70.5t-33 -89v-260q0 -168 -29.5 -263.5t-88 -142.5t-171.5 -78z" />
<glyph unicode="~" horiz-adv-x="1103" d="M160 653q68 84 153 105q45 12 86 12t82 -10q82 -20 162 -43q59 -16 117 -17q23 0 43 2q76 8 131 74l90 -145q-66 -84 -150 -107q-41 -10 -81 -10q-43 0 -84 12q-82 23 -162 47q-57 16 -113 17q-25 0 -49 -2q-80 -10 -139 -78z" />
<glyph unicode="&#xa1;" horiz-adv-x="561" d="M160 141l39 1067h155l43 -1069q0 -139 -123 -139q-114 0 -114 141zM176 1352q0 41 31 71.5t72 30.5q43 0 73.5 -30.5t30.5 -71.5q0 -43 -30.5 -74t-73.5 -31q-41 0 -72 31t-31 74z" />
<glyph unicode="&#xa2;" horiz-adv-x="899" d="M160 369v262q0 172 78.5 274.5t210.5 128.5v242h223v-248q70 -14 143 -49l-61 -195q-57 20 -82 27v-600q57 10 86 22l61 -221q-86 -20 -147 -26v-219h-223v223q-41 8 -60 14q-121 41 -175 126t-54 239zM385 346q1 -82 64 -115v551q-63 -49 -64 -139v-297z" />
<glyph unicode="&#xa3;" horiz-adv-x="976" d="M160 0v207q115 0 174 67.5t59 186.5q0 59 -28 160h-158v223h86q-37 106 -37 211q0 178 111.5 287.5t283.5 109.5q141 0 223 -51l-69 -203q-70 39 -154 39q-55 0 -93 -23.5t-53.5 -59.5t-20.5 -59.5t-5 -43.5q0 -98 41 -207h342v-223h-268q25 -96 24 -154v-14 q-6 -78 -19 -124t-52 -122h350v-207h-737z" />
<glyph unicode="&#xa4;" horiz-adv-x="1038" d="M160 901l170 158l67 -76q61 39 164 39q119 0 158 -39l78 78l161 -160l-79 -67q4 -10 12 -32t12 -32t9.5 -28.5t7.5 -37t2 -42.5q0 -31 -4.5 -56.5t-8.5 -39t-15 -41t-15 -42.5l71 -67l-151 -158l-80 82q-70 -37 -158 -37q-94 0 -158 37l-75 -84l-154 158l74 67 q-45 61 -45 181q0 74 39 161zM410 662q0 -61 44 -104.5t107 -43.5q61 0 105.5 43.5t44.5 104.5q0 63 -44 107t-106 44q-63 0 -107 -44t-44 -107z" />
<glyph unicode="&#xa5;" horiz-adv-x="1206" d="M160 1434h237l217 -488h54l219 488h239l-229 -488h78v-215h-180l-39 -86v-12h219v-215h-219v-418h-228v418h-209v215h209v12l-41 86h-168v215h68z" />
<glyph unicode="&#xa7;" horiz-adv-x="1216" d="M160 -16h233q0 -66 62.5 -124.5t185.5 -58.5q57 0 109.5 11.5t101.5 56.5t49 119q0 66 -41 111.5t-106.5 74.5t-143.5 54.5t-154.5 61.5t-139 86t-99.5 136q-29 74 -29 170v33q6 113 74 196q-66 82 -65 195q0 143 118.5 247.5t341.5 104.5q170 0 299 -61l-14 -37 q-12 -37 -31.5 -89t-29.5 -85q-113 57 -219 57q-137 0 -185.5 -40t-48.5 -103q0 -51 49 -89t123 -60.5t162 -59.5t166 -80t135 -128t70 -200q2 -27 2 -53q0 -51 -9 -106q-16 -88 -41 -136q47 -72 48 -176q0 -188 -120 -301.5t-370 -113.5q-223 0 -351 117.5t-132 269.5z M416 668q0 -96 75.5 -149.5t215 -95.5t192.5 -73q14 53 14 101q0 78 -65.5 140t-144 93t-161.5 60.5t-100 41.5q-27 -41 -26 -118z" />
<glyph unicode="&#xa8;" horiz-adv-x="454" d="M0 1450q0 39 26.5 65.5t63.5 26.5q39 0 65.5 -26.5t26.5 -65.5q0 -37 -26.5 -63.5t-65.5 -26.5q-37 0 -63.5 26.5t-26.5 63.5zM270 1452q0 39 27 65.5t65.5 26.5t65.5 -26.5t27 -65.5t-27 -65.5t-65.5 -26.5t-65.5 26.5t-27 65.5z" />
<glyph unicode="&#xa9;" horiz-adv-x="1638" d="M51 510q0 324 223.5 543t546.5 219q322 0 543 -219t221 -543q0 -328 -223.5 -549t-540.5 -221q-319 0 -544.5 221t-225.5 549zM279 510q0 -242 156.5 -396.5t385.5 -154.5q227 0 383 155.5t156 395.5q0 227 -158 385t-381 158q-229 0 -385.5 -154t-156.5 -389zM391 506 q0 197 117 335t317 138q150 0 262.5 -88t137.5 -229h-217q-10 35 -64.5 62.5t-122.5 27.5q-109 0 -162 -70t-53 -174q0 -106 56.5 -178t160.5 -72q72 0 128.5 28.5t56.5 71.5h219q-33 -147 -143.5 -236t-254.5 -89q-203 0 -320.5 133t-117.5 340z" />
<glyph unicode="&#xaa;" horiz-adv-x="790" d="M160 1063q0 158 119 211q47 23 96 22q76 0 155 -47v6q0 27 -3 37.5t-19 26.5t-53 13t-105 -5l21 125q27 2 51 2q164 0 221 -61q68 -68 68 -256v-336q-98 -16 -168 -23h-56q-45 0 -92 4q-78 8 -125 37t-78.5 90.5t-31.5 153.5zM328 1051q0 -113 133 -113q30 0 69 6v152 q-51 29 -94 39q-16 6 -30 6q-25 0 -46 -15q-33 -18 -32 -75z" />
<glyph unicode="&#xab;" horiz-adv-x="1071" d="M86 547v2l383 383l149 -148l-245 -237l243 -244l-147 -139zM537 547v2l383 383l149 -148l-246 -237l244 -244l-147 -139z" />
<glyph unicode="&#xad;" horiz-adv-x="839" d="M92 631v215h656v-215h-656z" />
<glyph unicode="&#xae;" horiz-adv-x="1638" d="M51 510q0 324 223.5 543t546.5 219q322 0 543 -219t221 -543q0 -328 -223.5 -549t-540.5 -221q-319 0 -544.5 221t-225.5 549zM279 510q0 -242 156.5 -396.5t385.5 -154.5q227 0 383 155.5t156 395.5q0 227 -158 385t-381 158q-229 0 -385.5 -154t-156.5 -389zM569 80 v895h232q319 0 319 -256q0 -49 -6 -82t-36.5 -74t-88.5 -69l148 -414h-222l-120 389h-13v-389h-213zM782 641h45q74 0 74 74q0 33 -14.5 57.5t-40.5 24.5h-64v-156z" />
<glyph unicode="&#xaf;" horiz-adv-x="692" d="M160 1268v186h452v-186h-452z" />
<glyph unicode="&#xb0;" horiz-adv-x="829" d="M160 1157q0 123 86 209t209 86t209 -86t86 -209t-86 -209t-209 -86t-209 86t-86 209zM350 1157q0 -43 29 -73.5t76 -30.5t75.5 30.5t28.5 73.5q0 41 -28.5 73t-75.5 32t-76 -32t-29 -73z" />
<glyph unicode="&#xb1;" horiz-adv-x="894" d="M160 426v201h223v86h-223v182h223v221h207v-221h225v-182h-225v-86h225v-201h-655z" />
<glyph unicode="&#xb4;" horiz-adv-x="454" d="M94 1204l94 221q20 47 68 62q23 8 39 8q18 0 31 -8q41 -20 49 -62q2 -6 2 -12q0 -37 -33 -80l-100 -129h-150z" />
<glyph unicode="&#xb5;" horiz-adv-x="978" d="M76 -412v1438h225v-799q10 -10 78 -26q59 -12 106 -13h13q129 8 129 211v619l227 26v-903q6 -57 55 -86l-204 -67l-5 4l-9 9l-13 13q-51 -39 -150 -39q-20 0 -45 2q-104 14 -182 48v-455z" />
<glyph unicode="&#xb6;" horiz-adv-x="1478" d="M160 1073q0 205 94 334t287 129h858v-1944h-211v1711l-139 2v-1711l-215 -2v912h-312q-66 0 -119 13t-90 41t-64.5 57.5t-43 78.5t-25.5 86t-14 98.5t-5 96.5t-1 98z" />
<glyph unicode="&#xb8;" horiz-adv-x="544" d="M137 -432l70 149q76 -51 160 -51q49 0 85.5 19.5t36.5 62.5t-40 55q-10 4 -25 4q-37 0 -88 -24l-90 -45l-72 102l125 160h143l-55 -78q39 14 70 15q70 0 123 -50.5t53 -138.5q0 -113 -91 -168t-196 -55q-92 0 -209 43z" />
<glyph unicode="&#xbb;" horiz-adv-x="1062" d="M0 784l150 148l382 -383v-2l-382 -383l-148 139l244 244zM451 784l149 148l383 -383v-2l-383 -383l-147 139l243 244z" />
<glyph unicode="&#xbf;" horiz-adv-x="997" d="M162 383q0 111 69 211q37 53 90.5 110.5t78 88t44 102.5t21.5 184v129h223v-190q0 -94 -29.5 -177t-64.5 -130t-87 -111.5t-75 -99.5q-43 -70 -43 -125q0 -10 2 -23q10 -61 51 -99t88 -38q80 0 119 40.5t39 106.5h230q0 -154 -95.5 -258t-269.5 -104q-106 0 -197.5 55.5 t-142.5 139.5q-51 82 -51 188zM475 1350q0 41 31 71.5t74 30.5q41 0 71.5 -30.5t30.5 -71.5q0 -43 -30.5 -74t-71.5 -31q-43 0 -74 31t-31 74z" />
<glyph unicode="&#xc0;" horiz-adv-x="1079" d="M43 0l336 1434h317l363 -1434h-268l-84 375h-330l-80 -375h-254zM303 1710q0 6 2 14q8 39 49 60q12 8 31 8q16 0 39 -6q47 -16 68 -64l94 -221h-150l-100 129q-33 43 -33 80zM430 614h223l-116 443z" />
<glyph unicode="&#xc1;" horiz-adv-x="1079" d="M43 0l336 1434h317l363 -1434h-268l-84 375h-330l-80 -375h-254zM430 614h223l-116 443zM469 1497l94 221q20 47 68 64q23 6 39 6q18 0 30 -8q41 -20 50 -60q2 -8 2 -14q0 -37 -33 -80l-101 -129h-149z" />
<glyph unicode="&#xc2;" horiz-adv-x="1079" d="M43 0l336 1434h317l363 -1434h-268l-84 375h-330l-80 -375h-254zM246 1577l303 289l291 -289l-138 -80l-155 170l-166 -170zM430 614h223l-116 443z" />
<glyph unicode="&#xc3;" horiz-adv-x="1079" d="M43 0l336 1434h317l363 -1434h-268l-84 375h-330l-80 -375h-254zM197 1636q72 80 143 101q33 8 61 8q37 0 70 -12q59 -25 119 -50q45 -23 96 -22q12 0 23 2q63 7 120 70l86 -134q-70 -82 -139 -100q-31 -8 -57 -8q-37 0 -72 14q-59 25 -119 51q-45 20 -96 21h-26 q-68 -8 -130 -74zM430 614h223l-116 443z" />
<glyph unicode="&#xc4;" horiz-adv-x="1079" d="M43 0l336 1434h317l363 -1434h-268l-84 375h-330l-80 -375h-254zM309 1587q0 39 26.5 65.5t63.5 26.5q39 0 66 -26.5t27 -65.5q0 -37 -27 -63.5t-66 -26.5q-37 0 -63.5 26.5t-26.5 63.5zM430 614h223l-116 443zM580 1589q0 39 26.5 65.5t65.5 26.5t65.5 -26.5t26.5 -65.5 t-26.5 -65.5t-65.5 -26.5t-65.5 26.5t-26.5 65.5z" />
<glyph unicode="&#xc5;" horiz-adv-x="1079" d="M43 0l334 1427q-57 63 -58 150q0 90 65 154.5t155 64.5t154.5 -64.5t64.5 -154.5q0 -86 -60 -150l361 -1427h-268l-84 375h-330l-80 -375h-254zM430 614h223l-116 443zM477 1577q0 -27 17.5 -44t44 -17t43 17t16.5 44t-16.5 43t-43 16t-44 -16t-17.5 -43z" />
<glyph unicode="&#xc6;" horiz-adv-x="1675" d="M160 0l749 1434h686v-226h-458v-362h311l-70 -215h-241v-424h454v-207h-682l2 399h-280l-205 -399h-266zM743 614h168v332z" />
<glyph unicode="&#xc7;" horiz-adv-x="880" d="M135 375v657q0 156 44 236t134 135q92 51 219 51h27q143 -6 264 -68l-63 -204q-94 35 -207 35q-86 0 -139.5 -47.5t-53.5 -118.5v-672q0 -37 8.5 -66.5t27 -48t37 -33t51 -18.5t55 -7t62.5 3t62.5 9t64.5 13.5t58.5 14.5t53.5 14l34 -213q-168 -66 -329 -67l-39 -58 q39 14 69 15q70 0 123.5 -50.5t53.5 -138.5q0 -113 -91.5 -168t-195.5 -55q-92 0 -209 43l70 149q76 -51 159 -51q49 0 86 19.5t37 62.5t-41 55q-10 4 -24 4q-37 0 -88 -24l-90 -45l-72 102l119 152q-276 59 -277 383z" />
<glyph unicode="&#xc8;" horiz-adv-x="952" d="M160 0v1434h684v-226h-459v-362h281l-64 -215h-217v-426h455v-205h-680zM291 1708q0 6 2 12q8 41 49 62q12 8 31 8q16 0 39 -8q47 -14 67 -62l94 -221h-149l-100 129q-33 43 -33 80z" />
<glyph unicode="&#xc9;" horiz-adv-x="952" d="M160 0v1434h684v-226h-459v-362h281l-64 -215h-217v-426h455v-205h-680zM485 1495l95 221q20 47 67 62q23 8 39 8q18 0 31 -8q41 -20 49 -62q2 -6 2 -12q0 -37 -33 -80l-100 -129h-150z" />
<glyph unicode="&#xca;" horiz-adv-x="952" d="M160 0v1434h684v-226h-459v-362h281l-64 -215h-217v-426h455v-205h-680zM209 1577l303 289l291 -289l-137 -80l-156 170l-166 -170z" />
<glyph unicode="&#xcb;" horiz-adv-x="952" d="M160 0v1434h684v-226h-459v-362h281l-64 -215h-217v-426h455v-205h-680zM268 1587q0 39 27 65.5t63 26.5q39 0 66 -26.5t27 -65.5q0 -37 -27 -63.5t-66 -26.5q-37 0 -63.5 26.5t-26.5 63.5zM539 1589q0 39 26.5 65.5t65.5 26.5t65.5 -26.5t26.5 -65.5t-26.5 -65.5 t-65.5 -26.5t-65.5 26.5t-26.5 65.5z" />
<glyph unicode="&#xcc;" horiz-adv-x="675" d="M160 1217v217h352v-1434h-225v1212zM225 1708q0 6 2 12q8 41 49 62q12 8 31 8q16 0 39 -8q47 -14 68 -62l94 -221h-150l-100 129q-33 43 -33 80z" />
<glyph unicode="&#xcd;" horiz-adv-x="784" d="M160 1217v217h352v-1434h-225v1212zM338 1495l94 221q20 47 68 62q23 8 39 8q18 0 30 -8q41 -20 49 -62q2 -6 3 -12q0 -37 -33 -80l-101 -129h-149z" />
<glyph unicode="&#xce;" horiz-adv-x="917" d="M160 1577l303 289l291 -289l-138 -80l-155 170l-166 -170zM221 1217v217h352v-1434h-225v1212z" />
<glyph unicode="&#xcf;" horiz-adv-x="778" d="M160 1583q0 39 26.5 65.5t63.5 26.5q39 0 65.5 -26.5t26.5 -65.5q0 -37 -26.5 -63.5t-65.5 -26.5q-37 0 -63.5 26.5t-26.5 63.5zM184 1217v217h353v-1434h-226v1212zM430 1585q0 39 26.5 65.5t65.5 26.5t65.5 -26.5t26.5 -65.5t-26.5 -65.5t-65.5 -26.5t-65.5 26.5 t-26.5 65.5z" />
<glyph unicode="&#xd0;" horiz-adv-x="1318" d="M160 809v215h100v412h385q215 0 336 -112t137 -300h121v-215h-119v-399q0 -410 -434 -410h-426v809h-100zM485 207h168q51 0 86 5t75 21.5t60.5 55.5t20.5 100v420h-410v-602zM485 1024h408q-14 184 -227 184h-181v-184z" />
<glyph unicode="&#xd1;" horiz-adv-x="1331" d="M160 0v1434h225l555 -963v963h227v-1434h-227l-555 969v-969h-225zM324 1634q72 80 143 99q33 10 61 10q37 0 70 -14q59 -23 119 -50q45 -20 96 -20q12 0 23 2q63 7 120 70l86 -134q-70 -82 -139 -100q-31 -8 -57 -8q-37 0 -72 14q-59 25 -119 51q-45 20 -96 21 q-14 0 -27 -2q-68 -6 -129 -72z" />
<glyph unicode="&#xd2;" horiz-adv-x="1124" d="M129 379v659q0 211 115.5 319.5t318.5 108.5t314.5 -114.5t111.5 -315.5v-657q0 -207 -126 -304.5t-302 -97.5t-304 97.5t-128 304.5zM336 1708q0 6 2 12q8 41 49 62q12 8 31 8q16 0 39 -8q47 -14 67 -62l94 -221h-149l-100 129q-33 43 -33 80zM354 418 q0 -98 50.5 -154.5t154.5 -56.5q96 0 150.5 59.5t54.5 155.5v541q0 131 -40 195.5t-165 64.5t-165 -62.5t-40 -195.5v-547z" />
<glyph unicode="&#xd3;" horiz-adv-x="1124" d="M129 379v659q0 211 115.5 319.5t318.5 108.5t314.5 -114.5t111.5 -315.5v-657q0 -207 -126 -304.5t-302 -97.5t-304 97.5t-128 304.5zM354 418q0 -98 50.5 -154.5t154.5 -56.5q96 0 150.5 59.5t54.5 155.5v541q0 131 -40 195.5t-165 64.5t-165 -62.5t-40 -195.5v-547z M526 1495l95 221q20 47 67 62q23 8 39 8q18 0 31 -8q41 -20 49 -62q2 -6 2 -12q0 -37 -33 -80l-100 -129h-150z" />
<glyph unicode="&#xd4;" horiz-adv-x="1124" d="M129 379v659q0 211 115.5 319.5t318.5 108.5t314.5 -114.5t111.5 -315.5v-657q0 -207 -126 -304.5t-302 -97.5t-304 97.5t-128 304.5zM266 1577l303 289l291 -289l-137 -80l-156 170l-166 -170zM354 418q0 -98 50.5 -154.5t154.5 -56.5q96 0 150.5 59.5t54.5 155.5v541 q0 131 -40 195.5t-165 64.5t-165 -62.5t-40 -195.5v-547z" />
<glyph unicode="&#xd5;" horiz-adv-x="1124" d="M129 379v659q0 211 115.5 319.5t318.5 108.5t314.5 -114.5t111.5 -315.5v-657q0 -207 -126 -304.5t-302 -97.5t-304 97.5t-128 304.5zM227 1638q72 80 144 99q33 10 61 10q37 0 70 -14q59 -23 116 -50q47 -20 99 -20q12 0 24 2q62 7 119 70l86 -133q-70 -82 -139 -101 q-31 -8 -57 -8q-37 0 -72 14q-59 25 -117 52q-47 20 -98 20q-14 0 -29 -2q-66 -6 -127 -72zM354 418q0 -98 50.5 -154.5t154.5 -56.5q96 0 150.5 59.5t54.5 155.5v541q0 131 -40 195.5t-165 64.5t-165 -62.5t-40 -195.5v-547z" />
<glyph unicode="&#xd6;" horiz-adv-x="1124" d="M129 379v659q0 211 115.5 319.5t318.5 108.5t314.5 -114.5t111.5 -315.5v-657q0 -207 -126 -304.5t-302 -97.5t-304 97.5t-128 304.5zM328 1587q0 39 26.5 65.5t63.5 26.5q39 0 65.5 -26.5t26.5 -65.5q0 -37 -26.5 -63.5t-65.5 -26.5q-37 0 -63.5 26.5t-26.5 63.5z M354 418q0 -98 50.5 -154.5t154.5 -56.5q96 0 150.5 59.5t54.5 155.5v541q0 131 -40 195.5t-165 64.5t-165 -62.5t-40 -195.5v-547zM598 1589q0 39 26.5 65.5t65.5 26.5t65.5 -26.5t26.5 -65.5t-26.5 -65.5t-65.5 -26.5t-65.5 26.5t-26.5 65.5z" />
<glyph unicode="&#xd7;" horiz-adv-x="884" d="M160 918l145 122l176 -211l176 213l148 -118l-201 -242l199 -236l-144 -124l-178 210l-176 -213l-139 127l192 236z" />
<glyph unicode="&#xd8;" horiz-adv-x="1148" d="M160 -233l116 333q-100 104 -100 279v659q0 211 116 319.5t318 108.5q70 0 135 -16l78 223h246l-123 -346q90 -113 90 -291v-657q0 -207 -126 -304.5t-302 -97.5q-72 0 -131 15l-78 -225h-239zM401 461l263 756q-25 6 -58 6q-125 0 -165 -62.5t-40 -195.5v-504zM555 211 q14 -4 51 -4q96 0 150.5 59.5t54.5 155.5v516z" />
<glyph unicode="&#xd9;" horiz-adv-x="1159" d="M152 381v1055h225v-965q0 -139 42 -201.5t163 -62.5q123 0 164.5 62.5t41.5 201.5v965h226v-1055q0 -109 -38 -188.5t-102.5 -122.5t-136 -63.5t-153.5 -20.5t-155 20.5t-137.5 63.5t-102 122.5t-37.5 188.5zM377 1708q0 6 2 12q8 41 49 62q12 8 31 8q16 0 39 -8 q47 -14 67 -62l94 -221h-149l-100 129q-33 43 -33 80z" />
<glyph unicode="&#xda;" horiz-adv-x="1159" d="M152 381v1055h225v-965q0 -139 42 -201.5t163 -62.5q123 0 164.5 62.5t41.5 201.5v965h226v-1055q0 -109 -38 -188.5t-102.5 -122.5t-136 -63.5t-153.5 -20.5t-155 20.5t-137.5 63.5t-102 122.5t-37.5 188.5zM508 1497l94 221q20 47 68 64q23 6 39 6q18 0 30 -8 q41 -20 49 -60q2 -8 3 -14q0 -37 -33 -80l-101 -129h-149z" />
<glyph unicode="&#xdb;" horiz-adv-x="1159" d="M152 381v1055h225v-965q0 -139 42 -201.5t163 -62.5q123 0 164.5 62.5t41.5 201.5v965h226v-1055q0 -109 -38 -188.5t-102.5 -122.5t-136 -63.5t-153.5 -20.5t-155 20.5t-137.5 63.5t-102 122.5t-37.5 188.5zM285 1577l303 289l291 -289l-138 -80l-155 170l-166 -170z " />
<glyph unicode="&#xdc;" horiz-adv-x="1159" d="M152 381v1055h225v-965q0 -139 42 -201.5t163 -62.5q123 0 164.5 62.5t41.5 201.5v965h226v-1055q0 -109 -38 -188.5t-102.5 -122.5t-136 -63.5t-153.5 -20.5t-155 20.5t-137.5 63.5t-102 122.5t-37.5 188.5zM352 1587q0 39 27 65.5t63 26.5q39 0 66 -26.5t27 -65.5 q0 -37 -27 -63.5t-66 -26.5q-37 0 -63.5 26.5t-26.5 63.5zM623 1589q0 39 26.5 65.5t65.5 26.5t65.5 -26.5t26.5 -65.5t-26.5 -65.5t-65.5 -26.5t-65.5 26.5t-26.5 65.5z" />
<glyph unicode="&#xdd;" horiz-adv-x="1122" d="M98 846v588h226v-568q0 -246 243 -245q25 0 46.5 2t39 6t31.5 8t27.5 11t21.5 11.5t17.5 12.5t13.5 12t10 12l8 6v732h226v-1115q0 -162 -70 -252t-238 -106l-71 172q68 8 110.5 51t42.5 152v115q-102 -51 -215 -52q-211 0 -340 121t-129 326zM479 1497l94 221 q20 47 68 64q23 6 39 6q18 0 31 -8q41 -20 49 -60q2 -8 2 -14q0 -37 -33 -80l-100 -129h-150z" />
<glyph unicode="&#xde;" horiz-adv-x="1011" d="M160 0v1434h221v-426q78 35 162 34q190 0 289.5 -110.5t99.5 -286.5q0 -193 -105.5 -300t-275.5 -107q-102 0 -170 47v-285h-221zM381 651q0 -106 50 -153t120 -47q61 0 109.5 46t48.5 150q0 68 -38 124t-120 56q-63 0 -116.5 -49t-53.5 -127z" />
<glyph unicode="&#xdf;" horiz-adv-x="1155" d="M160 0v1100q0 152 90 244t239 92q123 0 205 -54.5t107 -128.5q14 -47 14 -94q0 -29 -4 -59q-16 -78 -70 -125l-41 2q-20 -31 -20 -62q0 -35 16 -63q14 -27 46 -60.5t63 -60t76 -66.5t75 -75q53 -57 84 -124t35 -151v-14q0 -78 -43 -158q-55 -106 -172 -147 q-72 -23 -143 -23q-45 0 -90 11q-119 25 -201 92l98 207q57 -55 119 -78q43 -14 78 -15q12 0 24 3q43 8 64 38q29 39 29 84q0 84 -97 183q-29 29 -83 80t-85.5 81.5t-67.5 79.5t-48 90q-8 29 -8 66q0 14 2 31q4 55 36 112q61 0 91 47q16 27 16 54q0 18 -8 37q-20 45 -80 45 q-123 0 -123 -185v-1036h-223z" />
<glyph unicode="&#xe0;" horiz-adv-x="1028" d="M160 317v29v170q0 203 141 272q59 33 135 33q12 0 23 -2q90 -4 155.5 -21.5t108.5 -41.5q0 131 -219 131l18 155q78 0 140.5 -9t105.5 -30.5t76 -44t51 -59.5t30.5 -64.5t16.5 -74.5t5 -74t1 -76v-610q-213 -20 -340 -20q-57 0 -96 4q-336 37 -352 333zM336 1315 q0 6 2 12q8 41 49 62q12 8 31 8q16 0 39 -8q47 -14 67 -62l94 -221h-149l-100 129q-33 43 -33 80zM387 375q0 -188 217 -189q53 1 119 13v317q-33 23 -85 42.5t-110 29.5q-18 2 -34 2q-37 0 -66 -17q-41 -25 -41 -86v-112z" />
<glyph unicode="&#xe1;" horiz-adv-x="1028" d="M160 317v29v170q0 203 141 272q59 33 135 33q12 0 23 -2q90 -4 155.5 -21.5t108.5 -41.5q0 131 -219 131l18 155q78 0 140.5 -9t105.5 -30.5t76 -44t51 -59.5t30.5 -64.5t16.5 -74.5t5 -74t1 -76v-610q-213 -20 -340 -20q-57 0 -96 4q-336 37 -352 333zM387 375 q0 -188 217 -189q53 1 119 13v317q-33 23 -85 42.5t-110 29.5q-18 2 -34 2q-37 0 -66 -17q-41 -25 -41 -86v-112zM528 1102l95 221q20 47 67 61q23 8 39 9q18 0 31 -9q41 -20 49 -61q2 -6 2 -12q0 -37 -33 -80l-100 -129h-150z" />
<glyph unicode="&#xe2;" horiz-adv-x="1028" d="M160 317v29v170q0 203 141 272q59 33 135 33q12 0 23 -2q90 -4 155.5 -21.5t108.5 -41.5q0 131 -219 131l18 155q78 0 140.5 -9t105.5 -30.5t76 -44t51 -59.5t30.5 -64.5t16.5 -74.5t5 -74t1 -76v-610q-213 -20 -340 -20q-57 0 -96 4q-336 37 -352 333zM279 1182l303 288 l290 -288l-137 -80l-155 170l-166 -170zM387 375q0 -188 217 -189q53 1 119 13v317q-33 23 -85 42.5t-110 29.5q-18 2 -34 2q-37 0 -66 -17q-41 -25 -41 -86v-112z" />
<glyph unicode="&#xe3;" horiz-adv-x="1028" d="M160 317v29v170q0 203 141 272q59 33 135 33q12 0 23 -2q90 -4 155.5 -21.5t108.5 -41.5q0 131 -219 131l18 155q78 0 140.5 -9t105.5 -30.5t76 -44t51 -59.5t30.5 -64.5t16.5 -74.5t5 -74t1 -76v-610q-213 -20 -340 -20q-57 0 -96 4q-336 37 -352 333zM211 1249 q72 80 143 99q33 10 62 10q37 0 69 -15q59 -23 117 -49q47 -20 98 -20q12 0 25 2q62 7 119 70l86 -134q-70 -82 -139 -100q-31 -8 -58 -8q-37 0 -71 14q-59 25 -117 51q-47 20 -99 21q-14 0 -28 -2q-66 -6 -127 -72zM387 375q0 -188 217 -189q53 1 119 13v317 q-33 23 -85 42.5t-110 29.5q-18 2 -34 2q-37 0 -66 -17q-41 -25 -41 -86v-112z" />
<glyph unicode="&#xe4;" horiz-adv-x="1028" d="M160 317v29v170q0 203 141 272q59 33 135 33q12 0 23 -2q90 -4 155.5 -21.5t108.5 -41.5q0 131 -219 131l18 155q78 0 140.5 -9t105.5 -30.5t76 -44t51 -59.5t30.5 -64.5t16.5 -74.5t5 -74t1 -76v-610q-213 -20 -340 -20q-57 0 -96 4q-336 37 -352 333zM348 1194 q0 39 26.5 65.5t63.5 26.5q39 0 65.5 -26.5t26.5 -65.5q0 -37 -26.5 -63.5t-65.5 -26.5q-37 0 -63.5 26.5t-26.5 63.5zM387 375q0 -188 217 -189q53 1 119 13v317q-33 23 -85 42.5t-110 29.5q-18 2 -34 2q-37 0 -66 -17q-41 -25 -41 -86v-112zM618 1196q0 39 27 65.5 t66 26.5t65.5 -26.5t26.5 -65.5t-26.5 -65.5t-65.5 -26.5t-66 26.5t-27 65.5z" />
<glyph unicode="&#xe5;" horiz-adv-x="1028" d="M160 317v29v170q0 203 141 272q59 33 135 33q12 0 23 -2q90 -4 155.5 -21.5t108.5 -41.5q0 131 -219 131v2q-80 10 -134.5 72.5t-54.5 144.5q0 90 64.5 154.5t155 64.5t155 -64.5t64.5 -154.5q0 -45 -21 -90q76 -25 123 -67t65.5 -106.5t22.5 -108.5t4 -124v-610 q-213 -20 -340 -20q-57 0 -96 4q-336 37 -352 333zM387 375q0 -188 217 -189q53 1 119 13v317q-33 23 -85 42.5t-110 29.5q-18 2 -34 2q-37 0 -66 -17q-41 -25 -41 -86v-112zM473 1106q0 -27 17.5 -44.5t44 -17.5t43 17.5t16.5 44.5t-16.5 43t-43 16t-44 -16t-17.5 -43z" />
<glyph unicode="&#xe6;" horiz-adv-x="1540" d="M160 346v170q0 203 141 272q59 33 135 33q12 0 23 -2q90 -4 155.5 -21.5t108.5 -41.5q0 131 -219 131l18 155q213 0 316 -79q100 82 262 81q170 0 265 -91t95 -253v-311l-510 -27v-57q0 -104 94 -119q14 -2 29 -2q92 0 254 82l82 -194q-152 -92 -338 -97h-27 q-76 0 -137 21q-72 -6 -111.5 -10t-111.5 -6h-53h-62q-43 4 -104.5 12t-100 25.5t-81.5 45t-66.5 66.5t-40 94.5t-16.5 122.5zM387 375q0 -188 217 -189q53 1 119 13v317q-33 23 -85 42.5t-110 29.5q-18 2 -34 2q-37 0 -66 -17q-41 -25 -41 -86v-112zM950 569l283 19v108 q0 61 -39 94t-96 33q-78 0 -113 -41t-35 -90v-123z" />
<glyph unicode="&#xe7;" horiz-adv-x="784" d="M74 369v262q0 145 57 243.5t152 137.5q78 33 172 32q18 0 39 -2q117 -8 235 -63l-61 -195q-106 37 -183 37q-55 0 -92 -18q-94 -45 -94 -160v-297q0 -68 47 -103.5t113 -37.5h26q51 0 97 6q57 8 90 22l61 -221q-129 -33 -248 -32h-14l-39 -58q39 14 70 15q70 0 123 -50.5 t53 -138.5q0 -113 -91 -168t-196 -55q-92 0 -209 43l70 149q76 -51 160 -51q49 0 86 19.5t37 62.5t-41 55q-10 4 -25 4q-37 0 -88 -24l-90 -45l-72 102l121 154q-6 2 -18.5 5t-18.5 5q-121 41 -175 126t-54 239z" />
<glyph unicode="&#xe8;" horiz-adv-x="976" d="M160 274v420q0 166 103.5 258t273.5 92t265 -91t95 -253v-311l-510 -27v-57q0 -104 96 -119q12 -2 27 -2q92 0 254 82l82 -194q-152 -92 -338 -97h-16q-147 0 -238 70q-94 76 -94 229zM319 1315q0 6 3 12q8 41 49 62q12 8 30 8q16 0 39 -8q47 -14 68 -62l94 -221h-149 l-101 129q-33 43 -33 80zM387 569l283 19v108q0 61 -39 94t-96 33q-78 0 -113 -41t-35 -90v-123z" />
<glyph unicode="&#xe9;" horiz-adv-x="976" d="M160 274v420q0 166 103.5 258t273.5 92t265 -91t95 -253v-311l-510 -27v-57q0 -104 96 -119q12 -2 27 -2q92 0 254 82l82 -194q-152 -92 -338 -97h-16q-147 0 -238 70q-94 76 -94 229zM387 569l283 19v108q0 61 -39 94t-96 33q-78 0 -113 -41t-35 -90v-123zM492 1102 l94 221q20 47 67 61q23 8 39 9q18 0 31 -9q41 -20 49 -61q2 -6 2 -12q0 -37 -33 -80l-100 -129h-149z" />
<glyph unicode="&#xea;" horiz-adv-x="976" d="M160 274v420q0 166 103.5 258t273.5 92t265 -91t95 -253v-311l-510 -27v-57q0 -104 96 -119q12 -2 27 -2q92 0 254 82l82 -194q-152 -92 -338 -97h-16q-147 0 -238 70q-94 76 -94 229zM262 1182l303 288l291 -288l-137 -80l-156 170l-166 -170zM387 569l283 19v108 q0 61 -39 94t-96 33q-78 0 -113 -41t-35 -90v-123z" />
<glyph unicode="&#xeb;" horiz-adv-x="1099" d="M72 274v420q0 166 103.5 258t273 92t265 -91t95.5 -253v-311l-510 -27v-57q0 -104 94 -119q14 -2 29 -2q92 0 254 82l82 -194q-152 -92 -338 -97h-17q-147 0 -237 70q-94 76 -94 229zM215 1194q0 39 26.5 65.5t63.5 26.5q39 0 65.5 -26.5t26.5 -65.5q0 -37 -26.5 -63.5 t-65.5 -26.5q-37 0 -63.5 26.5t-26.5 63.5zM299 569l283 19v108q0 61 -39 94t-97 33q-78 0 -112.5 -41t-34.5 -90v-123zM485 1196q0 39 27 65.5t65.5 26.5t65.5 -26.5t27 -65.5t-27 -65.5t-65.5 -26.5t-65.5 26.5t-27 65.5z" />
<glyph unicode="&#xec;" horiz-adv-x="561" d="M160 1315q0 6 2 12q8 41 49 62q12 8 31 8q16 0 39 -8q47 -14 67 -62l94 -221h-149l-100 129q-33 43 -33 80zM256 0v1026h225v-1026h-225z" />
<glyph unicode="&#xed;" horiz-adv-x="569" d="M160 0v1026h225v-1026h-225zM207 1102l94 221q20 47 68 61q23 8 39 9q18 0 30 -9q41 -20 49 -61q2 -6 2 -12q0 -37 -32 -80l-101 -129h-149z" />
<glyph unicode="&#xee;" horiz-adv-x="473" d="M-74 1182l303 288l291 -288l-137 -80l-156 170l-166 -170zM113 0v1026h225v-1026h-225z" />
<glyph unicode="&#xef;" horiz-adv-x="694" d="M160 1194q0 39 26.5 65.5t63.5 26.5q39 0 65.5 -26.5t26.5 -65.5q0 -37 -26.5 -63.5t-65.5 -26.5q-37 0 -63.5 26.5t-26.5 63.5zM268 0v1026h226v-1026h-226zM430 1196q0 39 26.5 65.5t65.5 26.5t65.5 -26.5t26.5 -65.5t-26.5 -65.5t-65.5 -26.5t-65.5 26.5t-26.5 65.5z " />
<glyph unicode="&#xf1;" horiz-adv-x="995" d="M160 0v1026h198l27 -12q94 31 178 30q94 0 178 -38q174 -80 174 -297v-709h-225v645q0 119 -88 164q-37 18 -80 18q-63 0 -139 -36v-791h-223zM188 1251q72 80 144 101q33 8 61 8q37 0 70 -12q59 -25 119 -50q45 -23 96 -22q12 0 22 2q64 7 121 70l86 -134 q-70 -82 -139 -100q-31 -8 -57 -8q-37 0 -72 14q-59 25 -119 51q-45 20 -96 21h-27q-68 -8 -129 -74z" />
<glyph unicode="&#xf2;" d="M160 377v270q0 195 99 298.5t286 103.5q178 0 278.5 -108t100.5 -294v-270q0 -172 -94.5 -284.5t-285 -112.5t-287.5 113.5t-97 283.5zM317 1315q0 6 2 12q8 41 50 62q12 8 30 8q16 0 39 -8q47 -14 68 -62l94 -221h-149l-101 129q-33 43 -33 80zM385 356q0 -156 160 -155 q68 0 111.5 38.5t43.5 116.5v291q0 59 -14 97t-42 53.5t-49.5 19.5t-49.5 4q-160 0 -160 -174v-291z" />
<glyph unicode="&#xf3;" d="M160 377v270q0 195 99 298.5t286 103.5q178 0 278.5 -108t100.5 -294v-270q0 -172 -94.5 -284.5t-285 -112.5t-287.5 113.5t-97 283.5zM385 356q0 -156 160 -155q68 0 111.5 38.5t43.5 116.5v291q0 59 -14 97t-42 53.5t-49.5 19.5t-49.5 4q-160 0 -160 -174v-291z M489 1102l95 221q20 47 67 61q23 8 39 9q18 0 31 -9q41 -20 49 -61q2 -6 2 -12q0 -37 -33 -80l-100 -129h-150z" />
<glyph unicode="&#xf4;" d="M160 377v270q0 195 99 298.5t286 103.5q178 0 278.5 -108t100.5 -294v-270q0 -172 -94.5 -284.5t-285 -112.5t-287.5 113.5t-97 283.5zM256 1182l303 288l291 -288l-137 -80l-156 170l-166 -170zM385 356q0 -156 160 -155q68 0 111.5 38.5t43.5 116.5v291q0 59 -14 97 t-42 53.5t-49.5 19.5t-49.5 4q-160 0 -160 -174v-291z" />
<glyph unicode="&#xf5;" horiz-adv-x="1005" d="M160 377v270q0 195 99 298.5t286 103.5q178 0 278.5 -108t100.5 -294v-270q0 -172 -94.5 -284.5t-285 -112.5t-287.5 113.5t-97 283.5zM207 1198q72 80 143 100q33 8 62 9q37 0 69 -13q59 -25 117 -49q47 -23 98 -22q12 0 25 2q62 6 119 69l86 -133q-70 -82 -140 -100 q-31 -8 -57 -8q-37 0 -72 14q-59 25 -116 51q-47 20 -99 21h-28q-66 -8 -127 -74zM385 356q0 -156 160 -155q68 0 111.5 38.5t43.5 116.5v291q0 59 -14 97t-42 53.5t-49.5 19.5t-49.5 4q-160 0 -160 -174v-291z" />
<glyph unicode="&#xf6;" d="M160 377v270q0 195 99 298.5t286 103.5q178 0 278.5 -108t100.5 -294v-270q0 -172 -94.5 -284.5t-285 -112.5t-287.5 113.5t-97 283.5zM326 1194q0 39 26.5 65.5t63.5 26.5q39 0 65.5 -26.5t26.5 -65.5q0 -37 -26.5 -63.5t-65.5 -26.5q-37 0 -63.5 26.5t-26.5 63.5z M385 356q0 -156 160 -155q68 0 111.5 38.5t43.5 116.5v291q0 59 -14 97t-42 53.5t-49.5 19.5t-49.5 4q-160 0 -160 -174v-291zM596 1196q0 39 26.5 65.5t65.5 26.5t65.5 -26.5t26.5 -65.5t-26.5 -65.5t-65.5 -26.5t-65.5 26.5t-26.5 65.5z" />
<glyph unicode="&#xf7;" horiz-adv-x="894" d="M160 694v183h655v-183h-655zM383 537q0 45 33 77.5t78 32.5t77.5 -32.5t32.5 -77.5t-32.5 -78t-77.5 -33t-78 33t-33 78zM383 1026q0 45 33 78t78 33t77.5 -33t32.5 -78t-32.5 -78t-77.5 -33t-78 33t-33 78z" />
<glyph unicode="&#xf8;" horiz-adv-x="1034" d="M160 -137l98 231q-96 109 -96 283v270q0 195 99 298.5t286 103.5q66 0 115 -15l73 170h219l-118 -276q90 -106 90 -281v-270q0 -172 -94.5 -284.5t-284.5 -112.5q-68 0 -117 14l-55 -131h-215zM387 391l182 428q-8 2 -22 2q-160 0 -160 -174v-256zM520 201h27 q68 0 111.5 38.5t43.5 116.5v265z" />
<glyph unicode="&#xf9;" d="M160 352v674h225v-641q0 -94 34 -139t126 -45t122.5 50t30.5 142v633h226v-1026h-211l-15 12q-92 -35 -153 -35q-385 0 -385 375zM332 1315q0 6 2 12q8 41 49 62q12 8 31 8q16 0 39 -8q47 -14 67 -62l94 -221h-149l-100 129q-33 43 -33 80z" />
<glyph unicode="&#xfa;" d="M160 352v674h225v-641q0 -94 34 -139t126 -45t122.5 50t30.5 142v633h226v-1026h-211l-15 12q-92 -35 -153 -35q-385 0 -385 375zM489 1102l95 221q20 47 67 61q23 8 39 9q18 0 31 -9q41 -20 49 -61q2 -6 2 -12q0 -37 -33 -80l-100 -129h-150z" />
<glyph unicode="&#xfb;" d="M160 352v674h225v-641q0 -94 34 -139t126 -45t122.5 50t30.5 142v633h226v-1026h-211l-15 12q-92 -35 -153 -35q-385 0 -385 375zM246 1182l303 288l291 -288l-138 -80l-155 170l-166 -170z" />
<glyph unicode="&#xfc;" d="M160 352v674h225v-641q0 -94 34 -139t126 -45t122.5 50t30.5 142v633h226v-1026h-211l-15 12q-92 -35 -153 -35q-385 0 -385 375zM315 1194q0 39 27 65.5t64 26.5q39 0 65.5 -26.5t26.5 -65.5q0 -37 -27 -63.5t-65 -26.5q-37 0 -64 26.5t-27 63.5zM586 1196 q0 39 26.5 65.5t65.5 26.5t65.5 -26.5t26.5 -65.5t-26.5 -65.5t-65.5 -26.5t-65.5 26.5t-26.5 65.5z" />
<glyph unicode="&#xfd;" horiz-adv-x="1130" d="M160 360v666h225v-604q0 -129 35 -175t115 -46q90 0 128.5 44t38.5 177v321q0 109 75 200t190 101l84 -184q-59 -14 -91 -56t-32 -93v-836q0 -133 -62.5 -210t-212.5 -95l-88 178q53 0 95 33t42 104v119q-92 -29 -167 -29q-180 0 -277.5 97.5t-97.5 287.5zM483 1102 l95 221q20 47 67 61q23 8 39 9q18 0 31 -9q41 -20 49 -61q2 -6 2 -12q0 -37 -33 -80l-100 -129h-150z" />
<glyph unicode="&#xfe;" horiz-adv-x="1011" d="M160 0v1204h221v-196q78 35 162 34q190 0 289.5 -110.5t99.5 -286.5q0 -193 -105.5 -300t-275.5 -107q-102 0 -170 47v-285h-221zM381 651q0 -106 50 -153t120 -47q61 0 109.5 46t48.5 150q0 68 -38 124t-120 56q-63 0 -116.5 -49t-53.5 -127z" />
<glyph unicode="&#xff;" horiz-adv-x="1130" d="M160 360v666h225v-604q0 -129 35 -175t115 -46q90 0 128.5 44t38.5 177v321q0 109 75 200t190 101l84 -184q-59 -14 -91 -56t-32 -93v-836q0 -133 -62.5 -210t-212.5 -95l-88 178q53 0 95 33t42 104v119q-92 -29 -167 -29q-180 0 -277.5 97.5t-97.5 287.5zM328 1194 q0 39 26.5 65.5t63.5 26.5q39 0 65.5 -26.5t26.5 -65.5q0 -37 -26.5 -63.5t-65.5 -26.5q-37 0 -63.5 26.5t-26.5 63.5zM598 1196q0 39 26.5 65.5t65.5 26.5t65.5 -26.5t26.5 -65.5t-26.5 -65.5t-65.5 -26.5t-65.5 26.5t-26.5 65.5z" />
<glyph unicode="&#x152;" horiz-adv-x="1558" d="M160 379v659q0 211 115.5 319.5t318.5 108.5q115 0 201 -36v4h684v-226h-459v-153v-19v-190h280l-63 -215h-217v-252v-23v-151h455v-205h-680v14q-94 -37 -203 -37q-176 0 -304 97.5t-128 304.5zM385 418q0 -98 50 -154.5t155 -56.5q94 0 147.5 56.5t57.5 148.5v551 q0 131 -40 195.5t-165 64.5t-165 -62.5t-40 -195.5v-547z" />
<glyph unicode="&#x153;" horiz-adv-x="1581" d="M160 377v270q0 195 99 298.5t286 103.5q184 0 284 -119q80 72 146.5 93t181.5 21q152 0 248 -107.5t96 -270.5v-289l-575 -39v-12q0 -76 78 -113q61 -29 143 -29q23 0 49 2q113 11 219 60l82 -174q-152 -92 -338 -97h-37q-96 0 -168 19q-86 23 -147 88 q-82 -102 -262 -102q-190 0 -287.5 113.5t-97.5 283.5zM385 356q0 -176 160 -176q23 0 44 5t49 21.5t45 54.5t17 95v291q0 190 -155 191q-160 0 -160 -191v-291zM926 551l350 18v80q0 94 -41 141.5t-109 47.5q-201 0 -200 -213v-74z" />
<glyph unicode="&#x178;" horiz-adv-x="1122" d="M98 846v588h226v-568q0 -246 243 -245q25 0 46.5 2t39 6t31.5 8t27.5 11t21.5 11.5t17.5 12.5t13.5 12t10 12l8 6v732h226v-1115q0 -162 -70 -252t-238 -106l-71 172q68 8 110.5 51t42.5 152v115q-102 -51 -215 -52q-211 0 -340 121t-129 326zM326 1587q0 39 26.5 65.5 t63.5 26.5q39 0 65.5 -26.5t26.5 -65.5q0 -37 -26.5 -63.5t-65.5 -26.5q-37 0 -63.5 26.5t-26.5 63.5zM596 1589q0 39 26.5 65.5t65.5 26.5t65.5 -26.5t26.5 -65.5t-26.5 -65.5t-65.5 -26.5t-65.5 26.5t-26.5 65.5z" />
<glyph unicode="&#x2c6;" horiz-adv-x="765" d="M94 1286l303 289l291 -289l-137 -80l-156 170l-166 -170z" />
<glyph unicode="&#x2dc;" horiz-adv-x="958" d="M160 1331q72 80 143 99q33 10 62 10q37 0 69 -15q59 -23 119 -49q45 -20 96 -20q12 0 23 2q64 6 121 69l86 -133q-70 -82 -140 -100q-31 -8 -57 -8q-37 0 -72 14q-59 25 -118 51q-45 20 -97 21q-14 0 -26 -2q-68 -6 -129 -72z" />
<glyph unicode="&#x2000;" horiz-adv-x="933" />
<glyph unicode="&#x2001;" horiz-adv-x="1866" />
<glyph unicode="&#x2002;" horiz-adv-x="933" />
<glyph unicode="&#x2003;" horiz-adv-x="1866" />
<glyph unicode="&#x2004;" horiz-adv-x="622" />
<glyph unicode="&#x2005;" horiz-adv-x="466" />
<glyph unicode="&#x2006;" horiz-adv-x="311" />
<glyph unicode="&#x2007;" horiz-adv-x="311" />
<glyph unicode="&#x2008;" horiz-adv-x="233" />
<glyph unicode="&#x2009;" horiz-adv-x="373" />
<glyph unicode="&#x200a;" horiz-adv-x="103" />
<glyph unicode="&#x2010;" horiz-adv-x="839" d="M92 631v215h656v-215h-656z" />
<glyph unicode="&#x2011;" horiz-adv-x="839" d="M92 631v215h656v-215h-656z" />
<glyph unicode="&#x2012;" horiz-adv-x="839" d="M92 631v215h656v-215h-656z" />
<glyph unicode="&#x2013;" horiz-adv-x="1207" d="M92 631v215h1024v-215h-1024z" />
<glyph unicode="&#x2014;" horiz-adv-x="2231" d="M92 631v215h2048v-215h-2048z" />
<glyph unicode="&#x2018;" horiz-adv-x="294" d="M8 1212q0 70 32 125.5t105 124.5l142 -59q-43 -25 -80 -51.5t-51 -40.5l-17 -15l25 -6q61 -29 61 -98q0 -47 -32 -78q-31 -31 -76 -31h-6q-53 2 -78 43t-25 86z" />
<glyph unicode="&#x2019;" horiz-adv-x="294" d="M8 1133q43 25 80 51t51 41l17 14l-25 6q-61 29 -61 98q0 47 32 78q31 31 76 31h6q53 -2 78 -43t25 -86q0 -70 -31.5 -125t-105.5 -125z" />
<glyph unicode="&#x201a;" horiz-adv-x="364" d="M2 -113q43 25 80 51.5t53 41.5l15 14l-25 6q-61 29 -62 98q0 47 33 78q31 31 76 31h6q53 -2 78 -43t25 -86q0 -70 -32 -125t-106 -125z" />
<glyph unicode="&#x201c;" horiz-adv-x="602" d="M8 1221q0 70 32 125t105 124l142 -59q-43 -25 -80 -51.5t-51 -40.5l-17 -14l25 -7q61 -29 61 -98q0 -47 -32 -78q-31 -31 -76 -30h-6q-53 2 -78 43t-25 86zM315 1221q0 70 32 125t106 124l141 -59q-43 -25 -80 -51.5t-51 -40.5l-17 -14l25 -7q61 -29 61 -98 q0 -47 -32 -78q-31 -31 -76 -30h-6q-53 2 -78 43t-25 86z" />
<glyph unicode="&#x201d;" horiz-adv-x="602" d="M8 1135q43 25 80 51t51 41l17 14l-25 6q-61 29 -61 99q0 47 32 79q31 29 76 29h6q53 -2 78 -43t25 -86q0 -70 -31.5 -125t-105.5 -125zM315 1135q43 25 80 51t51 41l17 14l-25 6q-61 29 -61 99q0 47 33 79q31 29 75 29h7q53 -2 77.5 -43t24.5 -86q0 -70 -31.5 -125 t-105.5 -125z" />
<glyph unicode="&#x201e;" horiz-adv-x="671" d="M2 -113q43 25 80 51.5t53 41.5l15 14l-25 6q-61 29 -62 98q0 47 33 78q31 31 76 31h6q53 -2 78 -43t25 -86q0 -70 -32 -125t-106 -125zM309 -113q43 25 80 51.5t53 41.5l15 14l-25 6q-61 29 -61 98q0 47 32 78q31 31 76 31h6q53 -2 78 -43t25 -86q0 -70 -31.5 -125 t-105.5 -125z" />
<glyph unicode="&#x2022;" horiz-adv-x="970" d="M160 690.5q0 151.5 106.5 258t258 106.5t259 -106.5t107.5 -258t-107.5 -259t-259 -107.5t-258 107.5t-106.5 259z" />
<glyph unicode="&#x2026;" horiz-adv-x="1032" d="M2 102q0 43 30.5 74t71.5 31q43 0 74 -31t31 -74q0 -41 -31 -71.5t-74 -30.5q-41 0 -71.5 30.5t-30.5 71.5zM373 102q0 43 30.5 74t71.5 31q43 0 74 -31t31 -74q0 -41 -31 -71.5t-74 -30.5q-41 0 -71.5 30.5t-30.5 71.5zM741 102q0 43 31 74t72 31q43 0 73.5 -31 t30.5 -74q0 -41 -30.5 -71.5t-73.5 -30.5q-41 0 -72 30.5t-31 71.5z" />
<glyph unicode="&#x202f;" horiz-adv-x="373" />
<glyph unicode="&#x2039;" horiz-adv-x="620" d="M86 547v2l383 383l149 -148l-245 -237l243 -244l-147 -139z" />
<glyph unicode="&#x203a;" horiz-adv-x="612" d="M0 784l150 148l382 -383v-2l-382 -383l-148 139l244 244z" />
<glyph unicode="&#x205f;" horiz-adv-x="466" />
<glyph unicode="&#x20ac;" horiz-adv-x="1103" d="M160 406v215h125v98h-125v215h125v86q0 156 44 235.5t134 135.5q92 51 219 51h27q143 -6 264 -68l-64 -205q-94 35 -207 35q-86 0 -139 -47t-53 -119v-104h305v-215h-305v-98h305v-215h-305v-39q0 -37 8 -67t26.5 -48.5t37 -32.5t51.5 -18t55.5 -7.5t62.5 3t62.5 9.5 t64.5 13t58 14.5t53 14.5l35 -213q-100 -39 -201 -55q-66 -12 -131 -13q-33 0 -67 4q-98 8 -173 48t-121 127t-46 216v44h-125z" />
<glyph unicode="&#x2122;" horiz-adv-x="1157" d="M215 1339v95h473l80 -222l78 222h131v-385h-94v245l-82 -245h-64l-82 245v-245h-98v290h-115v-290h-98v290h-129z" />
<glyph unicode="&#xe000;" horiz-adv-x="1024" d="M0 0v1024h1024v-1024h-1024z" />
<glyph unicode="&#xfb01;" horiz-adv-x="929" d="M160 0v1059q0 166 93 275.5t236 119.5h29q131 0 285 -86l-178 -160q-18 33 -76 41q-12 2 -23 2q-45 0 -84 -24q-53 -33 -53 -103v-98h178l-49 -211h-129v-815h-229zM627 0v1026h223v-1026h-223z" />
<glyph unicode="&#xfb02;" horiz-adv-x="929" d="M160 0v1059q0 238 170 342q86 53 221 53q127 0 299 -49v-1405h-229v1214q-23 31 -78 37h-17q-47 0 -88 -26q-49 -33 -49 -101v-98h178l-49 -211h-129v-815h-229z" />
<glyph unicode="&#xfb04;" horiz-adv-x="1404" d="M160 0v1026q0 68 10 115q37 178 190 256q80 43 197 43q104 0 238 -35q80 41 212 41t318 -41v-1405h-229v1210q-37 8 -88 11q-4 2 -9 2q-45 0 -86 -31q-43 -35 -43 -98v-68h179q-8 -35 -24.5 -105.5t-25.5 -105.5h-129v-815h-229v1059q0 74 12 135q-31 27 -92 29h-8 q-59 0 -111 -31q-53 -35 -53 -98v-68h178q-8 -35 -24.5 -105.5t-24.5 -105.5h-129v-815h-229z" />
</font>
</defs>
</svg>
